<?xml version="1.0" encoding="utf-8"?>
<!-- Generator: Adobe Illustrator 15.0.0, SVG Export Plug-In . SVG Version: 6.00 Build 0)  -->
<!DOCTYPE svg PUBLIC "-//W3C//DTD SVG 1.1//EN" "http://www.w3.org/Graphics/SVG/1.1/DTD/svg11.dtd">
<svg version="1.1" id="Layer_1" xmlns="http://www.w3.org/2000/svg" xmlns:xlink="http://www.w3.org/1999/xlink" x="0px" y="0px"
	 width="612px" height="792px" viewBox="0 0 612 792" enable-background="new 0 0 612 792" xml:space="preserve">
<g>
	<path d="M121.464,216.671c-10.838,1.034-17.03,6.194-19.097,15.483v298.311H30.112v7.741c0,0,0,1.034,0,1.548
		c0.517,7.228,3.098,13.936,8.775,19.097c6.194,6.193,12.902,9.289,21.16,9.289h480.499c8.256,0,14.965-3.096,21.158-9.289
		c5.161-5.161,8.775-11.869,9.289-19.097c-0.514-0.514-0.514-1.548,0-1.548v-7.741h-63.48V231.638
		c0-7.225-5.161-12.387-13.937-14.967H121.464z M132.82,249.702h348.887v247.73H132.82V249.702z M556.029,539.754
		c-1.548,2.58-5.162,4.646-10.323,6.708H338.744v10.322h-75.867v-10.322H54.887c-9.806-1.546-14.966-3.607-16-6.708H556.029z"/>
</g>
</svg>
